<svg width="26" height="26" viewBox="0 0 26 26" fill="none" xmlns="http://www.w3.org/2000/svg">
<g clip-path="url(#clip0_419_7345)">
<path d="M17.9845 26H8.01895C3.59895 26 0.00342041 22.4045 0.00342041 17.9845V8.01895C-6.44242e-07 3.59553 3.59553 0 8.01552 0H17.9811C22.4011 0 25.9966 3.59553 25.9966 8.01553V17.9811C25.9966 22.4011 22.4011 25.9966 17.9811 25.9966L17.9845 26ZM8.01552 3.42105C5.48053 3.42105 3.42105 5.48395 3.42105 8.01553V17.9811C3.42105 20.5161 5.48395 22.5755 8.01552 22.5755H17.9811C20.5161 22.5755 22.5755 20.5126 22.5755 17.9811V8.01553C22.5755 5.48053 20.5126 3.42105 17.9811 3.42105H8.01552Z" fill="#C8C8C8"/>
<path d="M22.9655 21.5975L18.0187 16.6507L16.0208 18.6486H13.6021L8.43972 13.4862L2.43919 19.4833L0.0205078 17.0646L7.22867 9.85645H9.64735L14.8097 15.0188L16.811 13.0209H19.2297L25.3876 19.1788L22.9655 21.5975Z" fill="#C8C8C8"/>
<path d="M17.2592 6.33203C16.1268 6.33203 15.2065 7.25229 15.2065 8.38466C15.2065 9.51703 16.1268 10.4373 17.2592 10.4373C18.3915 10.4373 19.3118 9.51703 19.3118 8.38466C19.3118 7.25229 18.3915 6.33203 17.2592 6.33203Z" fill="#C8C8C8"/>
</g>
<defs>
<clipPath id="clip0_419_7345">
<rect width="26" height="26" fill="white"/>
</clipPath>
</defs>
</svg>
