<svg width="38" height="38" viewBox="0 0 38 38" fill="none" xmlns="http://www.w3.org/2000/svg">
<rect width="38" height="38" rx="6" fill="white"/>
<g clip-path="url(#clip0_419_7576)">
<path d="M28.7295 29H9.2705L8 27.75V13.33L9.2705 12.08H12.7872L13.8164 9.75L14.9801 9H23.0148L24.1786 9.75L25.2077 12.08H28.7244L29.9949 13.33V27.75L28.7244 29H28.7295ZM10.541 26.5H27.459V14.58H24.3793L23.2155 13.83L22.1864 11.5H15.8161L14.787 13.83L13.6232 14.58H10.5435V26.5H10.541Z" fill="#3D3E42"/>
<path d="M18.9998 25.1923C16.1514 25.1923 13.834 22.9123 13.834 20.1098C13.834 17.3073 16.1514 15.0273 18.9998 15.0273C21.8483 15.0273 24.1657 17.3073 24.1657 20.1098C24.1657 22.9123 21.8483 25.1923 18.9998 25.1923ZM18.9998 17.5273C17.5515 17.5273 16.375 18.6873 16.375 20.1098C16.375 21.5323 17.554 22.6923 18.9998 22.6923C20.4457 22.6923 21.6247 21.5323 21.6247 20.1098C21.6247 18.6873 20.4457 17.5273 18.9998 17.5273Z" fill="#3D3E42"/>
<path d="M12.8837 15.9746H8.12695V18.4746H12.8837V15.9746Z" fill="#3D3E42"/>
</g>
<defs>
<clipPath id="clip0_419_7576">
<rect width="22" height="20" fill="white" transform="translate(8 9)"/>
</clipPath>
</defs>
</svg>
