<svg width="38" height="38" viewBox="0 0 38 38" fill="none" xmlns="http://www.w3.org/2000/svg">
<rect width="38" height="38" rx="6" fill="white"/>
<g clip-path="url(#clip0_419_7569)">
<path d="M28.6238 29H9.3762L8 27.6842V10.3158L9.3762 9H28.6238L30 10.3158V27.6842L28.6238 29ZM10.7524 26.3684H27.2476V11.6316H10.7524V26.3684Z" fill="#3D3E42"/>
<path d="M24.5062 24.2393H13.4966L12.3818 22.1525L16.4747 16.7288L18.4647 16.4814L25.3815 21.9051L24.5089 24.2393H24.5062ZM16.1857 21.6078H20.6583L17.8481 19.4051L16.1857 21.6078Z" fill="#3D3E42"/>
<path d="M23.6366 13.9629C22.7558 13.9629 22.043 14.6445 22.043 15.4866C22.043 16.3287 22.7558 17.0103 23.6366 17.0103C24.5174 17.0103 25.2303 16.3287 25.2303 15.4866C25.2303 14.6445 24.5174 13.9629 23.6366 13.9629Z" fill="#3D3E42"/>
</g>
<defs>
<clipPath id="clip0_419_7569">
<rect width="22" height="20" fill="white" transform="translate(8 9)"/>
</clipPath>
</defs>
</svg>
