<svg width="197" height="284" viewBox="0 0 197 284" fill="none" xmlns="http://www.w3.org/2000/svg">
    <path d="M16.75 0v1.5h-14a1.25 1.25 0 0 0-1.244 1.122L1.5 2.75v14H0v-14A2.75 2.75 0 0 1 2.582.005L2.75 0h14zM180 0v1.5h14c.647 0 1.18.492 1.244 1.122l.006.128v14h1.5v-14a2.75 2.75 0 0 0-2.582-2.745L194 0h-14zM16.75 283.75v-1.5h-14a1.25 1.25 0 0 1-1.244-1.122L1.5 281v-14H0v14a2.75 2.75 0 0 0 2.582 2.745l.168.005h14zM180 283.75v-1.5h14a1.25 1.25 0 0 0 1.244-1.122l.006-.128v-14h1.5v14a2.75 2.75 0 0 1-2.582 2.745l-.168.005h-14z" fill="#EA3062"/>
    <rect x="17" y="17" width="163" height="250" rx="8" fill="#E7EBED"/>
    <g opacity=".15">
        <mask id="98p8sq3nxa" style="mask-type:luminance" maskUnits="userSpaceOnUse" x="67" y="112" width="59" height="60">
            <path fill-rule="evenodd" clip-rule="evenodd" d="M67 112h58.843v60H67v-60z" fill="#fff"/>
        </mask>
        <g mask="url(#98p8sq3nxa)">
            <path fill-rule="evenodd" clip-rule="evenodd" d="M80.443 127.741a2.078 2.078 0 0 0-.136.106c-.023.02-.054.049-.056.075-.01.171-.115.299-.183.444-.037.078-.106.143-.137.223-.032.081-.053.162-.107.238a1.637 1.637 0 0 0-.187.362c-.051.136-.167.242-.17.396-.19.221-.205.524-.367.757a.286.286 0 0 0-.036.14c-.005.091-.012.178-.095.238a.14.14 0 0 0-.049.082c-.048.263-.182.498-.255.752a.462.462 0 0 0-.025.119c-.002.098-.018.188-.1.262-.062.057-.07.144-.07.226 0 .106-.008.204-.076.298-.044.06-.044.154-.062.231-.026.11-.054.22-.078.329-.002.007-.008.016-.008.024-.022.259-.12.5-.176.751-.021.101-.018.208-.021.313-.004.097.005.193-.065.277-.023.028-.029.076-.032.114-.028.315-.089.627-.075.944a.513.513 0 0 1-.051.259.437.437 0 0 0-.034.188c-.002.534 0 1.068 0 1.603 0 .04-.002.083.01.121.07.22.068.447.076.672.007.203.022.406.032.608.004.079 0 .159 0 .264.004.004.02.034.043.054a.267.267 0 0 1 .096.238c-.006.072 0 .145 0 .217a.512.512 0 0 0 .088.324.43.43 0 0 1 .073.251c.005.265.108.501.208.74.021.05.037.106.05.159.01.047.01.097.021.144.033.139.151.238.155.401.001.138.075.277.13.412.056.133.096.273.157.401.112.232.187.48.326.697.067.105.079.246.203.32.019.011.014.06.024.092.011.037.016.086.042.107a.779.779 0 0 1 .193.305c.012.03.025.061.047.085.14.158.235.345.348.52.088.135.191.26.288.391.113.155.246.292.36.449.058.08.148.133.197.231.041.082.136.135.205.202.068.069.154.12.183.222.005.02.028.042.048.052.15.085.26.216.38.332.075.072.158.136.236.205.175.151.344.312.53.45.22.16.457.301.69.446.056.033.115.054.15.115.01.02.033.043.053.048.16.026.257.165.4.216.162.056.29.168.453.221.037.012.071.035.105.056.145.09.289.18.462.208a.18.18 0 0 1 .088.036.495.495 0 0 0 .335.127c.02-.002.052.003.068.019.175.153.414.13.61.228.093.046.203.056.301.092.13.047.261.083.401.079a.278.278 0 0 1 .142.023c.211.125.446.138.68.146.163.004.325.004.478.069a.43.43 0 0 0 .144.026c.665.03 1.33.026 1.995 0 .065-.004.135 0 .193-.021.187-.07.38-.07.576-.08.201-.01.405-.02.58-.142a.146.146 0 0 1 .094-.021c.177.023.335-.051.497-.093.132-.035.258-.09.39-.134.037-.013.078-.019.118-.026.032-.004.063-.005.096-.011.122-.023.19-.158.324-.156.118 0 .213-.056.312-.115.11-.066.239-.092.357-.14.082-.033.16-.077.242-.112a.987.987 0 0 1 .13-.058c.045-.019.101-.02.134-.051.17-.155.413-.192.578-.351.163.001.24-.149.373-.206.13-.057.234-.173.364-.233.093-.043.11-.15.22-.177.093-.025.169-.119.25-.184.073-.061.14-.134.219-.187.178-.116.303-.292.469-.416.242-.181.423-.413.627-.628.193-.203.354-.433.564-.625.076-.07.125-.167.186-.252.207-.297.43-.586.617-.896.153-.256.386-.454.516-.725.136-.102.231-.24.342-.367.142-.166.297-.32.448-.477.154-.156.306-.312.465-.463.129-.122.263-.236.396-.352l.182-.159c.023-.022.044-.055.07-.065.165-.059.271-.193.403-.294.044-.035.093-.066.14-.096.316-.204.632-.412.962-.594.036-.02.072-.042.109-.053.072-.021.138-.043.182-.109a.132.132 0 0 1 .079-.051c.126-.014.225-.09.335-.139.117-.052.22-.135.359-.142.035-.001.072-.034.106-.054.035-.021.065-.056.102-.067.084-.027.178-.028.252-.071a.872.872 0 0 1 .241-.108c.171-.043.337-.108.514-.136a.278.278 0 0 0 .115-.037c.133-.092.282-.104.437-.108a.55.55 0 0 0 .232-.068c.13-.063.264-.072.403-.086.127-.011.257-.023.383-.048.274-.053.55-.058.825-.058.561-.002 1.119.007 1.68.014.049 0 .099 0 .146.009.223.045.445.088.674.099.107.005.218.052.324.089.108.04.219.06.333.057a.391.391 0 0 1 .274.079.38.38 0 0 0 .157.06c.169.029.331.077.495.125.085.026.173.041.241.106.009.01.026.022.04.024.191.012.349.106.512.19.156.081.316.165.486.212.181.052.307.209.498.232.022.005.042.022.064.037l.197.136c.095.072.228.086.296.2.215.042.336.248.538.315.05.017.087.069.131.106.174.141.377.245.531.414.02.021.056.03.085.043.021.011.058.014.063.029.042.119.177.143.235.236.071.111.215.149.264.276a.802.802 0 0 1 .285.217c.021.026.055.043.066.07.072.171.236.26.347.393.087.104.204.184.268.296.067.114.163.199.235.305.185.263.385.517.554.789.132.21.285.406.374.64.013.038.039.071.056.109.07.161.205.281.25.462.041.161.152.303.214.459.043.113.058.233.16.317.03.025.023.09.034.136.011.056.008.121.036.165.125.193.159.415.22.63.03.108.042.221.116.316a.307.307 0 0 1 .049.181c-.004.167.045.319.102.471.017.045.043.091.046.137.029.369.132.732.149 1.103.016.373.028.745.039 1.117.005.236.007.471 0 .706-.014.378-.039.758-.06 1.138-.003.081-.012.163-.017.242-.004.058 0 .117-.015.171a2.177 2.177 0 0 0-.096.595c0 .038-.026.076-.039.113-.063.168-.129.332-.109.518a.196.196 0 0 1-.037.135c-.08.101-.1.221-.126.34-.021.102-.022.208-.084.299-.021.03-.019.077-.028.117-.008.039-.004.089-.025.117a.672.672 0 0 0-.132.408c-.002.015-.005.036-.016.045-.103.081-.115.206-.165.314a4.12 4.12 0 0 0-.121.313c-.045.121-.127.226-.127.364-.001.018-.021.044-.041.058-.069.052-.086.129-.114.206-.056.149-.135.291-.202.436-.02.043-.037.089-.056.133-.027.057-.053.116-.084.172-.019.036-.064.066-.066.099-.002.157-.11.265-.175.392-.062.131-.138.256-.207.384-.012.02-.033.043-.033.064-.007.139-.102.232-.17.341-.084.138-.165.277-.245.417-.015.026-.02.06-.029.091-.009.031-.009.074-.031.09-.18.139-.199.385-.36.534-.133.276-.316.522-.479.779-.094.148-.171.309-.293.443-.101.111-.155.26-.259.377-.129.143-.237.305-.352.459-.011.012-.031.021-.035.035-.051.169-.195.273-.293.408-.101.136-.217.26-.314.398-.114.164-.265.301-.381.463-.161.224-.373.403-.517.64-.027.043-.097.06-.127.103-.135.198-.343.329-.48.528a1.151 1.151 0 0 1-.255.257c-.193.146-.32.362-.527.49-.069.143-.223.201-.324.316-.091.108-.216.191-.321.29a5.04 5.04 0 0 1-.346.308c-.142.116-.31.21-.429.346-.098.115-.247.139-.338.26-.085.112-.214.195-.334.273-.218.14-.416.301-.629.446-.226.154-.459.296-.687.447-.052.036-.09.117-.143.124-.164.025-.252.161-.385.233-.094.051-.221.066-.274.182-.101.034-.181.11-.274.149-.181.078-.338.181-.506.28-.088.049-.194.066-.255.16-.008.011-.028.017-.043.02-.142.017-.254.105-.375.17-.086.043-.163.105-.267.108-.014 0-.039.005-.045.016-.094.169-.293.15-.436.234-.122.071-.248.148-.397.17a.295.295 0 0 0-.127.067c-.065.051-.129.098-.218.094-.023 0-.054.003-.068.016-.122.104-.28.124-.42.181-.148.061-.315.081-.436.202a.029.029 0 0 1-.021.009c-.182-.018-.317.1-.471.16-.151.059-.312.088-.467.13-.047.014-.1.022-.137.05a.609.609 0 0 1-.344.1.317.317 0 0 0-.172.074.364.364 0 0 1-.247.084.69.69 0 0 0-.281.064c-.085.042-.185.054-.281.074a.933.933 0 0 0-.253.081c-.061.033-.14.036-.21.039a.798.798 0 0 0-.394.106.425.425 0 0 1-.256.061 1.013 1.013 0 0 0-.357.059c-.107.036-.22.058-.333.075-.141.021-.288.031-.425.088-.058.026-.126.029-.192.032-.18.007-.356.022-.53.06-.08.019-.158.023-.229.075-.035.025-.09.028-.14.032-.063.006-.129.004-.193.002a3.152 3.152 0 0 0-.961.121.73.73 0 0 1-.17.02c-.298.008-.6.012-.9.024-.096.002-.191.022-.287.033-.09.011-.177.029-.265.03-.698.008-1.397.018-2.094.021-.268.001-.536-.013-.804-.021-.015 0-.033.004-.048-.001-.274-.108-.562-.053-.842-.076-.08-.006-.162-.004-.245-.006a1.497 1.497 0 0 1-.429-.065 2.015 2.015 0 0 0-.675-.082c-.15.006-.308.03-.44-.082-.185-.028-.368-.061-.553-.081a3.14 3.14 0 0 1-.382-.064c-.275-.062-.553-.113-.826-.19-.053-.015-.112-.009-.169-.012a.393.393 0 0 1-.207-.06.657.657 0 0 0-.396-.101.248.248 0 0 1-.14-.028c-.097-.067-.209-.083-.32-.108-.188-.041-.365-.132-.564-.136a.124.124 0 0 1-.067-.025c-.119-.101-.26-.125-.41-.13-.024 0-.052-.003-.07-.017-.129-.108-.296-.128-.445-.187a.685.685 0 0 0-.185-.05c-.082-.013-.158-.027-.213-.099-.018-.024-.054-.048-.08-.048-.14.007-.244-.075-.36-.129-.067-.029-.14-.041-.209-.066-.118-.048-.242-.092-.352-.158a.502.502 0 0 0-.222-.084c-.083-.005-.16-.016-.209-.099a.114.114 0 0 0-.076-.052c-.168-.02-.3-.121-.443-.191-.044-.022-.086-.053-.132-.061-.106-.021-.206-.043-.273-.137-.24-.056-.413-.252-.653-.312-.03-.007-.066-.021-.084-.044-.052-.072-.124-.1-.206-.116-.031-.007-.068-.017-.09-.038-.152-.163-.395-.187-.549-.348-.16-.037-.26-.179-.41-.235-.08-.029-.145-.1-.217-.152-.032-.022-.065-.053-.101-.059a.326.326 0 0 1-.165-.093c-.04-.038-.096-.057-.144-.087-.07-.042-.137-.088-.204-.131-.095-.061-.193-.119-.282-.187-.127-.102-.271-.175-.386-.293-.075-.079-.19-.12-.28-.188-.173-.13-.335-.28-.515-.401-.213-.141-.397-.319-.602-.473-.148-.11-.27-.257-.421-.362-.198-.139-.34-.338-.55-.463-.072-.045-.123-.126-.188-.185-.131-.12-.271-.231-.397-.357-.293-.289-.59-.577-.869-.881-.126-.138-.262-.265-.376-.411-.136-.179-.305-.327-.442-.501-.087-.111-.206-.194-.274-.327-.061-.119-.174-.212-.263-.315-.096-.108-.195-.216-.285-.327-.054-.07-.1-.146-.143-.222-.081-.139-.216-.234-.302-.37-.082-.127-.15-.276-.26-.375-.1-.09-.15-.202-.222-.304-.071-.099-.122-.211-.201-.301-.077-.085-.118-.187-.181-.275-.06-.083-.142-.159-.183-.252-.064-.149-.183-.256-.257-.399a5.25 5.25 0 0 0-.23-.398c-.065-.099-.163-.182-.175-.313-.173-.151-.181-.411-.36-.559-.027-.164-.186-.262-.212-.429-.006-.045-.046-.085-.067-.127-.058-.113-.115-.229-.174-.343-.026-.05-.052-.1-.081-.147-.016-.028-.054-.051-.058-.077-.032-.247-.243-.414-.293-.655-.008-.037-.034-.071-.055-.106-.018-.027-.047-.048-.057-.077-.032-.082-.042-.175-.086-.249-.04-.068-.096-.123-.124-.204-.054-.169-.1-.341-.219-.483-.031-.037-.028-.105-.044-.158-.019-.07-.026-.146-.063-.206a1.423 1.423 0 0 1-.193-.568c-.005-.036-.025-.084-.052-.101-.08-.05-.099-.124-.111-.206-.006-.047-.004-.107-.033-.138-.116-.128-.129-.287-.167-.442-.046-.178-.142-.341-.191-.52-.049-.171-.081-.342-.19-.49-.017-.021-.015-.061-.014-.093 0-.124-.01-.243-.099-.342a.103.103 0 0 1-.028-.065c.005-.217-.113-.403-.135-.613a.826.826 0 0 0-.098-.298.494.494 0 0 1-.062-.254.637.637 0 0 0-.114-.413.232.232 0 0 1-.042-.136c.019-.265-.086-.51-.13-.763-.026-.157-.031-.319-.116-.467-.037-.063-.026-.159-.021-.239.014-.239-.079-.463-.09-.698-.117-.138-.071-.306-.08-.465-.005-.057-.002-.116-.015-.17-.12-.458-.13-.929-.15-1.397-.005-.097-.007-.188-.06-.279-.034-.059-.03-.141-.03-.213-.003-.253.004-.504-.002-.754-.002-.12-.023-.24-.035-.361-.006-.057-.015-.113-.015-.169 0-.583.002-1.167.004-1.75 0-.234.01-.469.034-.703.024-.232.012-.468.014-.704.002-.121-.004-.242 0-.363.001-.065-.004-.139.026-.191.082-.143.069-.298.073-.45.01-.405.05-.806.135-1.205.026-.124.014-.258.02-.385.007-.121-.005-.247.09-.345.027-.167.057-.334.08-.501.008-.064-.003-.129 0-.194.003-.048.001-.107.027-.141.088-.118.09-.258.114-.392.028-.161.04-.321.098-.474a.28.28 0 0 0 .015-.096c0-.164.02-.322.117-.464a.219.219 0 0 0 .038-.113c-.004-.321.194-.597.197-.916.097-.179.08-.396.188-.572a.455.455 0 0 0 .05-.259.335.335 0 0 1 .071-.224.562.562 0 0 0 .092-.221c.017-.079.055-.152.071-.226.049-.22.175-.417.196-.645a.297.297 0 0 1 .063-.152.416.416 0 0 0 .1-.266.319.319 0 0 1 .032-.116c.063-.139.132-.277.195-.416a.308.308 0 0 0 .026-.116.305.305 0 0 1 .1-.238c.029-.027.063-.068.062-.102-.011-.218.166-.363.214-.558.05-.201.2-.368.23-.581a.133.133 0 0 1 .033-.063c.115-.122.148-.287.221-.429.034-.064.047-.135.109-.184.027-.022.043-.071.043-.108 0-.095.051-.162.093-.24.114-.221.288-.409.347-.656a.208.208 0 0 1 .047-.084c.11-.122.158-.281.242-.417.083-.135.108-.305.25-.402.012-.009.023-.028.023-.043-.003-.144.102-.23.173-.335.07-.107.102-.238.202-.328a.2.2 0 0 0 .058-.105c.017-.075.048-.134.118-.172.02-.01.036-.034.044-.056.055-.144.114-.285.243-.382.04-.162.19-.257.255-.405.052-.118.156-.201.209-.323.046-.105.144-.186.205-.29.065-.112.137-.22.222-.317.191-.215.318-.477.523-.682a.26.26 0 0 0 .052-.108.183.183 0 0 1 .091-.107c.033-.018.059-.05.084-.081.016-.018.018-.046.034-.064.21-.223.37-.486.587-.704.162-.163.297-.352.445-.529a.854.854 0 0 1 .084-.084c.025-.023.062-.037.074-.063.07-.171.22-.273.334-.407.11-.127.237-.241.356-.361.035-.035.076-.064.103-.104.136-.19.316-.338.483-.5a4 4 0 0 0 .202-.202c.084-.097.176-.185.274-.27.164-.142.31-.303.465-.455.13-.128.266-.253.424-.353.105-.069.194-.167.289-.254a8.63 8.63 0 0 1 .927-.765c.1-.138.27-.196.375-.337.066-.091.194-.135.294-.199.047-.033.09-.067.137-.099.097-.066.158-.187.293-.2.06-.113.192-.137.282-.218.087-.08.181-.152.295-.205.097-.044.178-.131.275-.186.119-.068.227-.151.341-.228.072-.047.109-.13.208-.156.08-.02.142-.099.217-.142.075-.045.16-.078.237-.122.083-.046.131-.129.226-.173.195-.094.37-.227.557-.34a.476.476 0 0 1 .13-.06c.066-.017.124-.038.16-.101.004-.005.009-.015.015-.018.185-.079.353-.187.524-.291.074-.042.172-.048.222-.134.007-.012.024-.021.04-.023.243-.04.42-.233.657-.29.045-.01.08-.056.12-.081.04-.026.082-.058.126-.065a.504.504 0 0 0 .214-.099c.096-.067.218-.102.327-.156.071-.034.14-.077.211-.113.042-.023.085-.053.13-.058.086-.011.149-.057.22-.094.129-.065.267-.112.4-.165.051-.022.11-.034.156-.067a.445.445 0 0 1 .29-.104c.023.001.053-.005.067-.019.114-.117.273-.129.412-.185.141-.058.28-.125.419-.185a.197.197 0 0 1 .094-.023.415.415 0 0 0 .286-.114.246.246 0 0 1 .128-.055.563.563 0 0 0 .32-.102.19.19 0 0 1 .09-.036c.178-.016.33-.133.515-.133.06.001.13-.032.176-.073.08-.076.171-.082.269-.086.049-.002.108.004.143-.021.165-.115.37-.112.547-.191.05-.021.11-.025.166-.034.136-.02.273-.034.383-.134.032-.029.09-.033.136-.037.09-.007.18-.011.268-.009.076 0 .144-.01.194-.077.05-.065.128-.066.202-.069.333-.01.647-.131.978-.165.015-.002.036 0 .046-.009.157-.118.34-.085.514-.103.154-.014.306-.026.446-.108a.422.422 0 0 1 .21-.044c.22-.001.434-.025.651-.062.288-.049.581-.063.872-.091.144-.014.29-.01.426-.08.054-.027.127-.026.19-.026.146-.004.294-.002.44-.001.17.003.341.007.508-.034.04-.011.082-.011.121-.011l2.314-.032c.503-.005 1.004.024 1.507.065.218.018.439.007.659.011.134.002.273-.007.401.068.05.03.127.019.189.025.323.032.65.049.97.1.231.037.463.066.699.065.063 0 .137.003.187.034.151.095.318.117.489.125.154.007.298.011.446.084.125.063.284.057.429.081.079.015.163.015.238.044a1.1 1.1 0 0 0 .38.068.428.428 0 0 1 .231.066.537.537 0 0 0 .348.085.414.414 0 0 1 .276.072.342.342 0 0 0 .156.062c.178.023.346.082.517.125.119.03.236.047.344.114a.444.444 0 0 0 .21.046c.117.003.223.014.313.104a.23.23 0 0 0 .154.058c.195.002.356.102.531.164a.108.108 0 0 1 .043.021c.111.087.257.044.37.099.108.054.2.125.324.154.163.039.316.117.476.178.066.025.136.045.205.069.037.011.083.015.112.038.1.076.203.133.332.137.03 0 .064.014.09.034.151.115.336.156.506.227.037.015.078.026.11.049.087.064.172.119.286.118.029-.001.059.022.087.037.135.071.268.149.408.213.064.03.137.044.183.109.036.049.097.047.155.056.046.007.104.014.133.044.114.125.28.152.416.23.118.068.229.152.372.166.025.002.047.039.071.06.023.022.045.058.071.062.118.017.2.102.299.153.1.052.207.094.3.151.095.06.18.134.292.16.154.157.395.19.541.358.181.071.319.214.494.294.059.029.114.056.151.114.009.014.023.032.036.033.135.004.203.119.302.184.101.066.192.153.3.204.274.127.482.348.743.493.121.144.293.222.439.334.117.092.228.196.368.265.097.047.172.139.257.211.228.193.445.397.687.573.163.117.294.267.454.387.157.114.288.259.439.381.176.142.349.283.486.462.06.079.15.118.219.189.143.146.302.282.436.443.052.062.129.112.194.17.195.179.351.395.545.575.058.054.091.134.177.16.021.008.04.03.054.048.199.306.471.552.697.837.202.256.427.493.618.76.094.13.214.239.323.357.011.013.031.021.034.032.03.116.114.189.192.271.074.082.13.18.195.271.203.285.41.567.606.858.072.104.168.195.219.308.056.122.144.213.219.317.024.031.035.073.051.11.01.021.015.057.03.064.134.06.159.199.22.307.057.105.163.181.182.309.003.007.005.017.012.021.119.093.158.239.23.363.074.125.121.271.215.377.1.116.132.255.197.379.043.08-.007.14-.1.144-.097.004-.161-.025-.218-.116-.105-.169-.233-.326-.348-.488-.136-.189-.27-.379-.404-.569a4.468 4.468 0 0 0-.372-.466c-.023-.023-.04-.05-.061-.075l-.52-.665c-.131-.071-.172-.228-.302-.306-.056-.034-.08-.118-.129-.173-.142-.161-.265-.344-.45-.466-.089-.19-.266-.303-.392-.46-.111-.138-.273-.232-.347-.403-.01-.023-.052-.033-.078-.049a1.67 1.67 0 0 1-.322-.323c-.017-.026-.031-.065-.056-.074-.159-.063-.241-.215-.363-.318-.123-.101-.26-.192-.349-.331-.024-.04-.068-.069-.104-.1-.207-.177-.408-.359-.62-.527-.313-.253-.611-.521-.93-.766-.114-.09-.239-.162-.339-.272-.069-.073-.194-.08-.258-.172-.181-.074-.276-.268-.475-.322-.078-.022-.143-.101-.206-.162-.147-.141-.347-.206-.49-.352-.028-.026-.067-.043-.103-.06-.031-.016-.074-.017-.089-.04-.112-.174-.311-.224-.474-.316-.146-.083-.269-.202-.433-.259-.086-.031-.157-.108-.238-.163-.038-.026-.082-.06-.124-.067-.08-.011-.129-.069-.192-.098-.225-.103-.413-.284-.665-.338a.159.159 0 0 1-.065-.032c-.214-.192-.49-.27-.743-.388-.036-.016-.079-.028-.107-.053a.337.337 0 0 0-.236-.11.227.227 0 0 1-.09-.032 28.333 28.333 0 0 1-.383-.208c-.063-.035-.129-.067-.193-.099-.027-.015-.054-.04-.085-.046-.277-.057-.519-.213-.787-.297-.054-.016-.104-.042-.154-.067-.037-.017-.071-.04-.106-.058-.108-.056-.247.003-.347-.092-.092-.087-.22-.095-.336-.127a5.352 5.352 0 0 1-.436-.151c-.114-.044-.224-.092-.35-.088a.209.209 0 0 1-.132-.049.458.458 0 0 0-.267-.106c-.096-.016-.191-.03-.277-.084-.04-.025-.091-.031-.139-.039-.129-.023-.255-.044-.376-.1a.534.534 0 0 0-.187-.039.451.451 0 0 1-.229-.072c-.108-.077-.242-.086-.373-.093-.154-.007-.308-.001-.442-.098a.138.138 0 0 0-.046-.015c-.288-.049-.575-.104-.864-.146a2.742 2.742 0 0 1-.426-.084c-.17-.05-.351-.063-.527-.082-.106-.012-.211 0-.317-.004-.048-.001-.103.004-.144-.018-.238-.124-.501-.115-.758-.132-.219-.014-.439-.014-.657-.024-.154-.007-.307-.002-.455-.067-.055-.023-.128-.016-.193-.016l-2.046-.004c-.339-.001-.681.001-1.023.003a.676.676 0 0 0-.305.054c-.078.035-.175.03-.263.035-.315.019-.633.034-.948.053a.653.653 0 0 0-.305.074c-.045.028-.108.032-.163.037a7.376 7.376 0 0 1-.365.007c-.23-.002-.45.037-.663.124a.492.492 0 0 1-.19.035 1.88 1.88 0 0 0-.454.067c-.119.028-.242.038-.361.058-.119.023-.238.035-.347.103-.056.036-.14.034-.213.034-.146.004-.285.009-.41.113-.05.041-.137.049-.208.052-.263.013-.506.106-.75.188-.1.033-.197.073-.304.073a.372.372 0 0 0-.249.083.36.36 0 0 1-.246.085c-.05-.002-.11-.009-.143.016-.16.126-.374.104-.546.198-.046.027-.108.028-.162.044-.054.016-.123.021-.158.058-.086.095-.19.111-.307.109-.03 0-.07.007-.091.026-.101.088-.23.116-.348.167-.058.026-.12.06-.18.063-.133.01-.214.122-.329.15-.11.026-.213.049-.305.132-.067.061-.174.081-.266.109-.11.035-.218.063-.303.147a.114.114 0 0 1-.064.034c-.288.049-.501.254-.76.363-.052.021-.1.049-.15.073-.05.025-.1.047-.148.075-.028.017-.047.056-.074.06-.175.026-.298.16-.457.221-.1.039-.221.066-.27.189-.005.019-.036.031-.059.035-.232.042-.4.203-.597.31-.084.046-.149.123-.247.144-.137.155-.335.224-.504.332-.254.165-.48.372-.757.503-.187.202-.45.305-.638.507-.025.029-.062.049-.095.071-.028.016-.07.021-.083.045-.084.146-.248.201-.362.314-.077.074-.177.13-.26.206-.095.088-.202.16-.3.246-.147.127-.29.257-.431.388-.07.063-.167.082-.221.18-.042.078-.138.127-.19.21-.026.037-.078.057-.118.085-.025.019-.06.031-.075.057-.126.197-.311.341-.47.506-.132.136-.262.277-.404.402a1.282 1.282 0 0 0-.217.247c-.056.084-.16.138-.223.219-.186.242-.413.45-.577.709-.042.066-.117.11-.159.177a.725.725 0 0 1-.131.169c-.058.053-.084.139-.14.195-.2.202-.34.448-.513.668-.159.202-.287.429-.443.634-.043.172-.18.283-.27.424-.092.142-.16.299-.248.467z" fill="#8090A4"/>
        </g>
        <mask id="ir7c1zgcfb" style="mask-type:luminance" maskUnits="userSpaceOnUse" x="77" y="115" width="53" height="57">
            <path fill-rule="evenodd" clip-rule="evenodd" d="M77.827 115.369H130v56.458H77.827v-56.458z" fill="#fff"/>
        </mask>
        <g mask="url(#ir7c1zgcfb)">
            <path fill-rule="evenodd" clip-rule="evenodd" d="m80.998 126.629.02-.252a.624.624 0 0 0 .196-.282.403.403 0 0 1 .16-.206c.08-.053.13-.16.181-.25.09-.154.177-.31.333-.412.028-.02.043-.065.062-.099.064-.114.138-.218.227-.316.124-.136.23-.291.35-.433.172-.206.348-.408.533-.601.18-.187.348-.384.528-.57.146-.152.294-.306.455-.438.101-.084.162-.196.266-.279.099-.076.218-.146.277-.269.011-.021.031-.043.052-.05.132-.046.21-.147.283-.256.086-.131.23-.198.34-.304.123-.117.265-.214.39-.327.08-.071.157-.142.251-.192.029-.016.069-.031.08-.056.052-.141.194-.157.3-.222a.76.76 0 0 0 .156-.111c.167-.168.332-.333.556-.421.03-.011.048-.043.074-.063.049-.04.096-.092.154-.117.172-.077.3-.213.449-.32.04-.028.082-.05.123-.076l.279-.193c.026-.02.052-.046.08-.054a.274.274 0 0 0 .182-.111.154.154 0 0 1 .081-.05c.093-.018.159-.077.233-.131.083-.063.156-.146.27-.156a.037.037 0 0 0 .023-.009c.163-.18.431-.183.598-.357.025-.027.073-.033.11-.048.03-.011.07-.011.091-.03.183-.157.414-.22.614-.342.04-.024.09-.035.133-.055.04-.022.095-.038.12-.074.047-.068.106-.091.183-.096a.328.328 0 0 0 .138-.042c.19-.111.19-.113.402-.134.08-.059.156-.121.237-.174.047-.03.1-.049.154-.069.029-.01.073-.002.094-.021.174-.152.41-.147.604-.25.057-.031.117-.057.175-.086.037-.019.071-.048.109-.055.13-.018.258-.039.345-.153.013-.016.045-.022.068-.025a1.95 1.95 0 0 0 .69-.227c.049-.023.108-.025.165-.038.118-.023.24-.034.34-.122.036-.033.103-.041.157-.043a.441.441 0 0 0 .253-.074.467.467 0 0 1 .181-.065c.129-.02.262-.014.373-.102.022-.017.062-.015.094-.014a.526.526 0 0 0 .345-.106.339.339 0 0 1 .228-.066.95.95 0 0 0 .498-.096.432.432 0 0 1 .117-.035c.306-.051.611-.102.917-.146.113-.016.225-.03.323-.099a.308.308 0 0 1 .16-.045c.114-.006.228-.002.342-.002a.748.748 0 0 0 .402-.094.486.486 0 0 1 .232-.059l.294-.009c.278-.004.555-.014.83-.067.087-.019.178-.02.268-.025.407-.022.814-.046 1.222-.06.261-.009.52.015.782-.017.192-.025.39-.002.586.003.106.002.213.018.319.014.62-.023 1.238.055 1.859.06.073.001.149.01.217.029.194.053.388.061.583.056.18-.005.351.012.527.078.164.064.351.068.528.089.105.011.213.002.319.004.09 0 .18.011.257.063a.721.721 0 0 0 .375.099c.148.004.293.007.43.078.02.011.048.02.071.017.179-.023.334.056.494.114a.967.967 0 0 0 .362.048c.1-.001.191.011.272.083a.426.426 0 0 0 .276.088.658.658 0 0 1 .231.063c.126.053.266.073.398.118.123.041.244.088.378.076a.214.214 0 0 1 .196.08.213.213 0 0 0 .171.082c.109.002.2.047.299.088.176.076.369.118.555.176.045.016.087.042.128.063.057.03.113.085.172.087.205.005.365.126.547.191.047.016.089.058.133.058.187-.001.316.116.457.209a.8.8 0 0 0 .219.104c.138.045.277.091.415.142a.433.433 0 0 1 .146.08.327.327 0 0 0 .197.085c.04.005.098.014.112.037.077.156.244.15.369.213.166.083.338.152.485.272.012.009.025.022.039.025.183.033.317.164.477.242.181.087.346.204.523.303.126.072.242.157.381.211.1.037.201.111.284.18.09.076.187.13.285.184.132.075.236.198.394.228.046.117.174.137.252.216a.926.926 0 0 0 .219.15c.079.038.179.04.196.155.004.017.034.039.055.044.11.024.182.104.267.167.109.079.223.153.322.252.095.095.209.176.331.245.131.075.239.194.363.285.156.113.276.277.467.342.076.172.277.225.358.392a.243.243 0 0 0 .142.126c.094.034.166.102.237.168.221.203.448.4.671.603.03.026.056.058.077.091.105.162.262.262.415.37.078.169.214.278.358.39.134.103.25.232.322.39.04.084.086.153.182.185a.218.218 0 0 1 .111.089c.093.165.241.285.36.427.138.165.276.334.423.493.183.195.326.423.516.611.067.177.26.268.316.456.012.037.048.065.072.096.077.094.171.179.229.285.097.173.228.315.345.471.11.15.203.312.31.467.044.066.074.145.152.186.02.009.038.035.045.056.097.244.257.448.412.657.061.084.075.19.156.27.072.07.1.183.15.275.026.05.052.103.089.144a.235.235 0 0 1 .068.152c.001.035.014.092.038.105.103.049.124.142.164.233.039.096.102.183.156.275.023.04.058.082.065.127a.395.395 0 0 0 .11.213c.021.023.046.053.05.081.016.129.111.217.162.327.041.087.112.159.119.264a.172.172 0 0 0 .057.104.33.33 0 0 1 .105.24.17.17 0 0 0 .022.069c.128.181.17.402.272.593.073.138.133.278.148.434.002.024.009.05.021.07.132.199.153.44.241.654.02.054.033.114.063.158a.405.405 0 0 1 .077.277c-.006.143.066.264.122.39.017.037.043.072.045.11.013.263.146.5.171.76.079.13.094.271.096.42a.355.355 0 0 0 .081.201.34.34 0 0 1 .083.271c-.02.166.023.32.072.476.04.133.058.27.089.405.028.126.065.25.086.377.019.121.012.245.036.365.022.11.032.224.109.321.028.032.028.092.031.139.006.072.008.146.002.219-.026.283.048.548.121.815.021.077.026.16.03.24.007.146.005.293.011.44.003.064.005.132.022.193.055.199.064.402.069.605.007.195.007.392.01.586.002.179-.004.358.044.535.021.075.015.162.015.242-.002.677-.003 1.354-.008 2.03 0 .097-.017.193-.026.29-.01.088-.022.179-.024.268-.005.252-.005.505-.012.757a1.184 1.184 0 0 1-.063.431c-.038.093-.026.208-.029.313-.006.131-.002.26-.006.391-.003.195-.007.387-.083.575-.088.208-.073.432-.071.651a.697.697 0 0 1-.078.374.964.964 0 0 0-.093.475c.003.156-.003.307-.079.452-.029.054-.029.126-.032.19a1.04 1.04 0 0 1-.087.405.666.666 0 0 0-.056.333.36.36 0 0 1-.065.253.688.688 0 0 0-.106.369.63.63 0 0 1-.069.305.84.84 0 0 0-.075.28.719.719 0 0 1-.1.321c-.027.04-.014.109-.014.165.002.117-.002.226-.098.315a.235.235 0 0 0-.065.151 1.185 1.185 0 0 1-.089.323c-.081.203-.124.419-.175.634-.014.064-.017.129-.065.178a.375.375 0 0 0-.101.27.348.348 0 0 1-.083.222.515.515 0 0 0-.082.172c-.045.14-.083.281-.124.422-.004.015-.007.035-.018.044-.114.082-.132.199-.123.326.005.06-.032.103-.073.146a.318.318 0 0 0-.084.143c-.033.18-.132.331-.205.492-.023.043-.057.088-.057.133 0 .12-.005.228-.134.287-.017.007-.031.041-.029.062.005.117-.072.195-.121.287-.065.121-.142.239-.153.382a.15.15 0 0 1-.041.086c-.141.143-.201.329-.281.504-.039.082-.066.167-.103.248-.016.036-.047.063-.072.095-.02.025-.059.049-.059.073.003.172-.134.27-.2.404-.043.086-.122.155-.124.263 0 .026-.026.058-.051.078a.221.221 0 0 0-.082.143c-.004.032-.014.071-.035.09-.159.158-.209.385-.352.554-.042.052-.042.136-.066.223a2.315 2.315 0 0 0-.095.043c-.085.14-.153.27-.238.388-.065.091-.098.201-.194.275-.036.03-.025.123-.063.151-.168.129-.191.36-.352.488-.079.17-.194.322-.315.461-.101.114-.141.268-.266.37-.12.097-.153.264-.278.367-.05.043-.056.139-.107.182-.049.042-.084.092-.127.139-.182.196-.296.448-.509.621-.043.034-.073.086-.105.133-.039.061-.067.13-.138.168-.021.01-.043.03-.048.052-.051.153-.19.238-.28.361-.094.121-.213.225-.315.341-.099.112-.193.232-.293.346-.085.098-.165.206-.27.277-.112.076-.171.191-.26.281-.092.091-.169.199-.26.292-.054.057-.127.098-.185.154-.154.146-.303.296-.457.441-.116.114-.243.217-.35.337-.165.188-.391.312-.537.519-.017.025-.049.039-.076.057-.095.061-.196.111-.258.218-.047.079-.177.084-.22.183-.151.067-.228.23-.382.295-.021.009-.049.029-.05.048-.009.095-.095.1-.152.14-.083.059-.209.066-.226.198-.094.064-.18.141-.281.193a1.09 1.09 0 0 0-.175.128 5.35 5.35 0 0 1-.379.303c-.197.142-.397.278-.593.419-.026.018-.057.039-.07.064-.03.071-.088.086-.153.109a1.303 1.303 0 0 0-.199.089c-.033.018-.058.049-.084.079-.02.021-.035.055-.062.071-.192.132-.39.26-.588.385-.033.023-.075.03-.111.05a1.284 1.284 0 0 0-.138.093c-.025.019-.044.053-.071.065-.243.097-.443.261-.659.398-.034.021-.074.032-.111.049-.037.014-.089.019-.109.048-.077.121-.215.137-.324.201-.059.031-.123.046-.154.111-.003.006-.009.016-.016.018-.077.023-.158.037-.229.073-.063.032-.109.117-.17.126-.12.017-.208.089-.309.14-.101.05-.195.113-.306.153-.069.023-.12.101-.19.134-.065.029-.142.02-.205.068-.086.06-.181.111-.273.159a.393.393 0 0 1-.14.04c-.08.006-.14.029-.177.108-.01.026-.049.049-.077.05-.222.017-.388.154-.571.25-.008.003-.017.003-.036.008-.021-.012-.053-.025-.074-.046-.115-.114-.104-.155.057-.208.054-.016.117-.031.153-.068.164-.164.392-.222.571-.356.179-.13.359-.255.545-.369a6.78 6.78 0 0 0 .696-.481c.146-.115.315-.192.457-.311.054-.047.114-.089.168-.136.067-.06.126-.124.217-.159.055-.022.099-.079.151-.12.042-.037.08-.083.128-.105.059-.025.098-.054.115-.115.006-.02.028-.04.048-.053.101-.065.208-.122.305-.195.103-.076.193-.171.293-.252.132-.109.266-.215.397-.322.034-.026.067-.051.092-.082.161-.205.376-.354.551-.544.073-.079.165-.149.254-.212.133-.096.212-.24.338-.34.027-.102.144-.097.198-.171.063-.081.111-.182.219-.222.069-.142.242-.189.308-.334.127-.054.156-.199.257-.283.106-.085.177-.207.268-.313a.366.366 0 0 1 .072-.063c.025-.021.065-.034.077-.058.086-.201.287-.299.404-.471.023-.033.049-.066.069-.1.086-.138.18-.272.312-.369.078-.056.104-.142.153-.213.051-.071.149-.105.198-.176.072-.097.119-.211.176-.321a.375.375 0 0 1 .117-.147c.057-.039.089-.11.133-.168.066-.09.127-.186.201-.271.072-.079.121-.169.171-.262.071-.134.175-.25.266-.371.038-.053.092-.098.116-.156.04-.095.046-.209.174-.241.017-.006.028-.037.039-.06.063-.104.118-.211.185-.316.096-.149.198-.294.292-.445.07-.108.127-.224.191-.336.025-.043.055-.081.08-.121.028-.048.057-.097.081-.147.022-.042.025-.102.059-.13.102-.091.129-.225.197-.335.046-.073.056-.168.139-.22.007-.003.015-.012.016-.018.006-.173.155-.274.209-.428.063-.182.169-.351.262-.521.069-.127.156-.244.169-.396.004-.036.045-.068.063-.104.069-.146.173-.278.177-.45 0-.054.026-.093.073-.118.065-.034.092-.092.093-.162a.392.392 0 0 1 .074-.2c.094-.153.169-.315.194-.495a.348.348 0 0 1 .074-.177c.034-.042.072-.098.074-.149a.417.417 0 0 1 .13-.303c.026-.026.034-.074.042-.113.052-.229.121-.454.228-.665.042-.082.017-.195.047-.286.032-.089.124-.161.14-.251.049-.29.164-.558.25-.835.013-.039.027-.08.025-.118a.513.513 0 0 1 .123-.405c.042-.046.042-.137.043-.209.005-.114.002-.224.079-.325.035-.05.037-.124.052-.186.041-.158.083-.314.117-.472.015-.072.016-.147.016-.219.001-.115.009-.222.083-.323a.54.54 0 0 0 .084-.35c-.01-.181.007-.349.08-.523.062-.145.066-.318.082-.479.017-.162.003-.324.069-.481.028-.065.023-.144.027-.215.004-.074-.004-.148.003-.22.015-.194-.014-.394.084-.574.031-.259.087-.514.085-.776-.008-.594-.009-1.19-.009-1.784 0-.759.006-1.517.003-2.275 0-.276-.04-.55-.126-.814-.017-.054-.021-.113-.025-.167-.007-.132-.01-.262-.014-.394-.007-.143.013-.289-.072-.425-.029-.049-.014-.127-.022-.191a25.674 25.674 0 0 0-.057-.485c-.003-.033-.003-.071-.021-.093-.108-.134-.094-.292-.088-.445a.752.752 0 0 0-.072-.33c-.029-.067-.068-.136-.07-.207-.006-.305-.129-.585-.177-.882-.001-.006-.001-.016-.004-.023a.987.987 0 0 1-.116-.488c.002-.043-.031-.098-.065-.127-.084-.074-.099-.168-.09-.267a.505.505 0 0 0-.056-.258c-.07-.164-.126-.332-.186-.501a.287.287 0 0 1-.017-.097c.003-.118-.017-.221-.116-.306-.037-.029-.049-.101-.051-.155a.81.81 0 0 0-.091-.3c-.065-.137-.11-.285-.161-.428-.012-.03-.003-.07-.019-.095-.101-.157-.158-.331-.218-.506-.041-.121-.114-.233-.16-.355-.043-.113-.077-.229-.164-.323-.025-.027-.027-.075-.037-.112-.013-.04-.016-.086-.039-.116a.561.561 0 0 1-.147-.322c-.009-.097-.095-.185-.144-.277-.013-.019-.039-.035-.047-.057-.031-.082-.046-.173-.086-.247-.044-.076-.132-.122-.132-.227a.222.222 0 0 0-.051-.106c-.139-.17-.191-.396-.354-.553-.019-.019-.014-.062-.025-.093-.048-.118-.089-.239-.175-.342-.056-.067-.078-.161-.133-.228-.052-.063-.089-.139-.138-.195-.14-.163-.205-.368-.329-.539-.093-.126-.221-.24-.258-.405a.086.086 0 0 0-.024-.042c-.284-.305-.452-.695-.746-.992-.077-.19-.268-.302-.346-.494-.029-.071-.097-.128-.15-.188l-.364-.418c-.053-.061-.114-.119-.155-.185-.094-.152-.243-.261-.322-.421-.007-.014-.016-.036-.027-.039-.112-.022-.129-.138-.202-.191-.085-.061-.132-.143-.19-.218-.061-.078-.19-.074-.212-.19-.075-.039-.112-.113-.154-.182-.028-.039-.065-.089-.107-.097-.095-.02-.11-.117-.178-.154a.342.342 0 0 1-.145-.156c-.006-.014-.021-.025-.033-.036-.113-.093-.196-.217-.331-.282-.062-.139-.19-.222-.283-.333-.024-.028-.067-.042-.1-.063-.028-.018-.061-.032-.075-.057-.077-.138-.201-.235-.323-.323-.108-.078-.167-.223-.315-.251-.088-.112-.228-.161-.322-.256-.166-.167-.37-.289-.525-.467-.01-.012-.019-.029-.033-.035a.795.795 0 0 1-.261-.201c-.076-.081-.193-.121-.273-.198-.081-.077-.236-.052-.266-.193-.081-.065-.191-.088-.261-.173-.015-.017-.045-.022-.063-.038-.104-.086-.257-.106-.33-.238-.136-.003-.195-.132-.299-.186a1.411 1.411 0 0 1-.184-.119c-.086-.063-.163-.129-.269-.165-.095-.034-.16-.13-.265-.167-.082-.028-.156-.085-.229-.136-.066-.05-.13-.1-.214-.111-.017-.003-.038-.007-.045-.019-.107-.146-.291-.169-.429-.266-.085-.059-.189-.092-.284-.139-.042-.022-.08-.05-.121-.076-.033-.023-.061-.066-.096-.072-.183-.028-.314-.156-.473-.232-.036-.018-.073-.039-.111-.043a.294.294 0 0 1-.172-.085.288.288 0 0 0-.171-.085.439.439 0 0 1-.134-.052c-.132-.063-.258-.137-.394-.188-.091-.037-.185-.046-.25-.137-.024-.035-.101-.041-.155-.045-.099-.006-.198.001-.248-.112-.012-.023-.051-.043-.08-.049a2.25 2.25 0 0 1-.59-.223.328.328 0 0 0-.141-.037c-.094-.006-.173-.029-.236-.106-.025-.029-.069-.057-.105-.055-.233.01-.411-.146-.621-.202-.111-.03-.218-.067-.332-.065-.083 0-.16-.008-.208-.096-.035-.064-.109-.07-.174-.072-.132-.001-.255-.012-.372-.093-.063-.044-.153-.051-.233-.067-.087-.019-.174-.025-.254-.076-.049-.031-.127-.023-.191-.024a.585.585 0 0 1-.325-.085.587.587 0 0 0-.352-.083.6.6 0 0 1-.302-.073c-.113-.057-.25-.067-.377-.093-.11-.023-.223-.038-.335-.058-.064-.011-.127-.027-.192-.033-.104-.01-.212-.006-.307-.066-.032-.02-.08-.014-.121-.019-.04-.004-.084.005-.12-.01-.252-.099-.516-.065-.777-.071-.12-.003-.245.008-.35-.077-.011-.01-.03-.012-.047-.013-.292-.029-.579-.089-.875-.086-.31.002-.621-.011-.93-.029-.122-.009-.237-.039-.36 0a.255.255 0 0 1-.144-.009c-.126-.051-.257-.043-.386-.043l-1.03-.003a1.32 1.32 0 0 0-.311.043c-.156.038-.323.038-.485.044-.236.012-.473.015-.709.026-.21.008-.422.019-.612.13-.031.018-.08.015-.119.017-.065.001-.131.005-.196 0-.258-.02-.502.037-.746.112a.942.942 0 0 1-.19.036c-.16.018-.325.008-.479.083-.054.027-.127.015-.192.019a.857.857 0 0 0-.401.102.51.51 0 0 1-.304.071c-.142-.005-.272.01-.39.107-.043.038-.118.052-.18.055a.866.866 0 0 0-.333.066c-.05.023-.112.023-.166.034-.056.013-.112.023-.165.041-.16.052-.304.148-.486.137-.055-.003-.117.053-.169.091-.047.036-.091.065-.152.065-.22-.006-.398.136-.606.172a.324.324 0 0 1-.248.084c-.017-.001-.037-.002-.048.006-.154.111-.343.14-.504.219-.147.071-.301.123-.45.188-.089.038-.187.052-.251.134a.094.094 0 0 1-.042.025c-.136.025-.26.054-.377.151-.094.078-.24.091-.36.14-.045.016-.083.05-.125.074-.05.028-.097.066-.15.076-.076.012-.136.037-.183.104-.019.029-.066.042-.102.058-.15.064-.3.121-.449.189a.49.49 0 0 0-.16.11.452.452 0 0 1-.264.152c-.073.013-.14.078-.203.13a.769.769 0 0 1-.206.123c-.07.03-.12.103-.188.142-.06.036-.149.035-.199.08-.106.094-.22.162-.349.222a.944.944 0 0 0-.294.205c-.064.068-.142.105-.217.154-.066.042-.148.069-.188.148-.008.014-.02.032-.033.034-.149.02-.206.176-.34.22a.264.264 0 0 0-.115.089 1.483 1.483 0 0 1-.414.328.47.47 0 0 0-.151.122c-.067.103-.216.118-.251.249-.216.059-.301.294-.504.37a.21.21 0 0 0-.074.06c-.21.269-.466.494-.695.743-.157.17-.338.318-.506.477-.028.027-.048.062-.072.094-.03.038-.05.088-.088.114-.13.089-.176.254-.31.336-.094.173-.257.29-.353.46-.016.028-.043.051-.056.08-.039.089-.066.185-.179.213l-.241.334-.128.176-.096.139c-.041.06-.08.123-.121.183-.028.039-.065.075-.083.12a2.78 2.78 0 0 1-.327.533 1.04 1.04 0 0 0-.137.258.538.538 0 0 1-.106.189c-.03.034-.043.084-.065.128-.021.042-.034.096-.066.126a.721.721 0 0 0-.177.317c-.059.176-.203.322-.193.523 0 .02-.019.053-.036.058-.115.044-.1.153-.139.241-.06.14-.09.294-.182.422a.254.254 0 0 0-.051.133c0 .127-.024.238-.117.334a.253.253 0 0 0-.06.155c0 .11-.047.201-.084.3-.08.211-.167.423-.171.656a.34.34 0 0 1-.063.179.743.743 0 0 0-.11.42.927.927 0 0 1-.073.375c-.064.165-.07.349-.097.527-.01.063.002.134-.018.193-.086.254-.067.514-.074.773-.003.132-.014.262-.003.392.016.193-.058.367-.107.547-.005.021-.05.047-.073.043-.022-.003-.054-.04-.056-.065-.013-.251-.03-.504-.032-.756-.005-.571-.013-1.141.003-1.712.007-.315.02-.632.09-.946.043-.196.033-.404.033-.609 0-.109.012-.206.082-.298.062-.078.072-.178.072-.277.001-.083-.003-.163.002-.245a.308.308 0 0 1 .04-.137.95.95 0 0 0 .127-.465c.007-.083.013-.16.06-.234a.34.34 0 0 0 .041-.137c.016-.139.048-.267.113-.396.048-.097.025-.227.065-.33.037-.096.125-.173.137-.281a.662.662 0 0 1 .105-.32c.01-.198.16-.353.166-.553 0-.035.029-.073.05-.106.025-.04.078-.075.082-.117.028-.225.184-.395.249-.604l.045-.139c.005-.015.001-.034.009-.047.047-.075.108-.142.142-.223.034-.078.023-.168.09-.246a.925.925 0 0 0 .163-.296c.03-.086.048-.171.126-.229.018-.013.038-.039.04-.058.006-.134.091-.222.167-.318a.544.544 0 0 0 .082-.148c.074-.2.203-.365.32-.539.03-.048.053-.101.076-.151.084-.171.178-.332.388-.402z" fill="#CAD1D9"/>
        </g>
    </g>
    <rect x="55" y="41" width="86" height="10" rx="5" fill="#8090A4"/>
    <rect x="80" y="56" width="35.141" height="5" rx="2.5" fill="#8090A4"/>
    <rect x="37" y="103" width="23.744" height="5" rx="2.5" fill="#CAD1D9"/>
    <rect x="64.935" y="103" width="11.174" height="5" rx="2.5" fill="#CAD1D9"/>
    <rect x="64.935" y="113" width="11.174" height="5" rx="2.5" fill="#CAD1D9"/>
    <rect x="64.935" y="123" width="11.174" height="5" rx="2.5" fill="#CAD1D9"/>
    <rect x="64.935" y="133" width="25.141" height="5" rx="2.5" fill="#CAD1D9"/>
    <rect x="64.935" y="143" width="25.141" height="5" rx="2.5" fill="#CAD1D9"/>
    <rect x="64.935" y="153" width="25.141" height="5" rx="2.5" fill="#CAD1D9"/>
    <rect x="64.935" y="163" width="25.141" height="5" rx="2.5" fill="#CAD1D9"/>
    <rect x="36.935" y="202" width="95.141" height="5" rx="2.5" fill="#CAD1D9"/>
    <rect x="36.935" y="212" width="35.141" height="5" rx="2.5" fill="#CAD1D9"/>
    <rect x="79.935" y="235" width="35.141" height="5" rx="2.5" fill="#CAD1D9"/>
    <rect x="37" y="113" width="23.744" height="5" rx="2.5" fill="#CAD1D9"/>
    <rect x="37" y="123" width="23.744" height="5" rx="2.5" fill="#CAD1D9"/>
    <rect x="37" y="133" width="23.744" height="5" rx="2.5" fill="#CAD1D9"/>
    <rect x="134.859" y="133" width="25.141" height="5" rx="2.5" fill="#CAD1D9"/>
    <rect x="134.859" y="143" width="25.141" height="5" rx="2.5" fill="#CAD1D9"/>
    <rect x="134.859" y="153" width="25.141" height="5" rx="2.5" fill="#CAD1D9"/>
    <rect x="134.859" y="163" width="25.141" height="5" rx="2.5" fill="#CAD1D9"/>
    <rect x="106.924" y="133" width="23.744" height="5" rx="2.5" fill="#CAD1D9"/>
    <rect x="55" y="71" width="6" height="6" rx="3" fill="#503DFF"/>
    <rect x="63" y="71" width="6" height="6" rx="3" fill="#503DFF"/>
    <rect x="71" y="71" width="6" height="6" rx="3" fill="#503DFF"/>
    <rect x="83" y="71" width="6" height="6" rx="3" fill="#503DFF"/>
    <rect x="91" y="71" width="6" height="6" rx="3" fill="#503DFF"/>
    <rect x="103" y="71" width="6" height="6" rx="3" fill="#503DFF"/>
    <rect x="111" y="71" width="6" height="6" rx="3" fill="#503DFF"/>
    <rect x="119" y="71" width="6" height="6" rx="3" fill="#503DFF"/>
    <rect x="127" y="71" width="6" height="6" rx="3" fill="#503DFF"/>
    <rect x="135" y="71" width="6" height="6" rx="3" fill="#503DFF"/>
    <path fill="#8090A4" d="M79 73h2v2h-2zM99 73h2v2h-2z"/>
    <path fill="#EA3062" d="M0 121h197v2H0z"/>
    <path fill="url(#u5h3omqzdc)" d="M0 123h197v52H0z"/>
    <defs>
        <linearGradient id="u5h3omqzdc" x1="0" y1="123" x2="0" y2="175" gradientUnits="userSpaceOnUse">
            <stop stop-color="#EA3062" stop-opacity=".25"/>
            <stop offset="1" stop-color="#FF8D02" stop-opacity=".01"/>
        </linearGradient>
    </defs>
</svg>
