<svg width="162" height="40" viewBox="0 0 162 40" xmlns="http://www.w3.org/2000/svg">
    <g fill="none" fill-rule="evenodd">
        <path fill="#EA3062" d="m0 0 8.453 9.98 15.211 17.678 8.648-8.271z"/>
        <path d="M2.284 10.098a25.264 25.264 0 0 0-1.843 9.49c0 8.373 4.06 15.795 10.317 20.411l9.465-9.05-17.939-20.85z" fill="#01007B"/>
        <path d="M48.768 28.36c1.008 0 1.895-.103 2.66-.308.765-.205 1.39-.448 1.876-.728a3.23 3.23 0 0 0 .798-.658c.196-.233.294-.565.294-.994v-6.524c0-1.624-.513-2.814-1.54-3.57-1.027-.756-2.408-1.134-4.144-1.134-.747 0-1.456.06-2.128.182a6.621 6.621 0 0 0-1.792.574c-.336.15-.583.327-.742.532-.159.205-.238.467-.238.784 0 .261.065.5.196.714.13.215.29.397.476.546a12.36 12.36 0 0 1 1.848-.7 7.525 7.525 0 0 1 2.156-.308c.952 0 1.694.187 2.226.56.532.373.798.97.798 1.792v.616l-3.892.392c-1.493.15-2.637.55-3.43 1.204-.793.653-1.19 1.596-1.19 2.828 0 1.381.509 2.427 1.526 3.136 1.017.71 2.431 1.064 4.242 1.064zm0-2.296c-.99 0-1.717-.173-2.184-.518-.467-.345-.7-.826-.7-1.442 0-.597.215-1.04.644-1.33.43-.29 1.073-.48 1.932-.574l3.052-.308v3.556c-.205.15-.55.29-1.036.42-.485.13-1.055.196-1.708.196zm13.692 2.268c1.773 0 3.127-.355 4.06-1.064.933-.71 1.4-1.69 1.4-2.94 0-1.083-.336-1.941-1.008-2.576-.672-.635-1.717-1.139-3.136-1.512l-1.624-.42c-.616-.15-1.05-.345-1.302-.588a1.228 1.228 0 0 1-.378-.924c0-.485.224-.863.672-1.134.448-.27 1.064-.406 1.848-.406.765 0 1.48.121 2.142.364.663.243 1.162.467 1.498.672.205-.13.373-.303.504-.518.13-.215.196-.471.196-.77 0-.299-.112-.579-.336-.84-.224-.261-.537-.48-.938-.658a6.488 6.488 0 0 0-1.428-.42 10.04 10.04 0 0 0-1.834-.154c-.84 0-1.587.098-2.24.294-.653.196-1.2.467-1.638.812-.439.345-.77.756-.994 1.232a3.54 3.54 0 0 0-.336 1.526c0 1.008.299 1.801.896 2.38s1.53 1.036 2.8 1.372l1.904.504c.597.15 1.05.364 1.358.644.308.28.462.653.462 1.12 0 .541-.224.957-.672 1.246-.448.29-1.092.434-1.932.434-.896 0-1.68-.14-2.352-.42-.672-.28-1.27-.588-1.792-.924a1.65 1.65 0 0 0-.574.588c-.14.243-.21.504-.21.784 0 .336.121.644.364.924s.583.523 1.022.728c.439.205.966.364 1.582.476.616.112 1.288.168 2.016.168zm12.852 0c1.773 0 3.127-.355 4.06-1.064.933-.71 1.4-1.69 1.4-2.94 0-1.083-.336-1.941-1.008-2.576-.672-.635-1.717-1.139-3.136-1.512l-1.624-.42c-.616-.15-1.05-.345-1.302-.588a1.228 1.228 0 0 1-.378-.924c0-.485.224-.863.672-1.134.448-.27 1.064-.406 1.848-.406.765 0 1.48.121 2.142.364.663.243 1.162.467 1.498.672.205-.13.373-.303.504-.518.13-.215.196-.471.196-.77 0-.299-.112-.579-.336-.84-.224-.261-.537-.48-.938-.658a6.488 6.488 0 0 0-1.428-.42 10.04 10.04 0 0 0-1.834-.154c-.84 0-1.587.098-2.24.294-.653.196-1.2.467-1.638.812-.439.345-.77.756-.994 1.232a3.54 3.54 0 0 0-.336 1.526c0 1.008.299 1.801.896 2.38s1.53 1.036 2.8 1.372l1.904.504c.597.15 1.05.364 1.358.644.308.28.462.653.462 1.12 0 .541-.224.957-.672 1.246-.448.29-1.092.434-1.932.434-.896 0-1.68-.14-2.352-.42-.672-.28-1.27-.588-1.792-.924a1.65 1.65 0 0 0-.574.588c-.14.243-.21.504-.21.784 0 .336.121.644.364.924s.583.523 1.022.728c.439.205.966.364 1.582.476.616.112 1.288.168 2.016.168zm14.644 0c1.064 0 1.993-.112 2.786-.336.793-.224 1.433-.476 1.918-.756.392-.243.653-.495.784-.756.13-.261.196-.597.196-1.008V16.04c0-.504-.13-.859-.392-1.064-.261-.205-.663-.308-1.204-.308-.28 0-.537.023-.77.07-.233.047-.425.089-.574.126v10.472c-.261.15-.616.29-1.064.42-.448.13-.999.196-1.652.196-1.008 0-1.797-.229-2.366-.686-.57-.457-.854-1.227-.854-2.31V16.04c0-.504-.126-.859-.378-1.064-.252-.205-.649-.308-1.19-.308-.28 0-.541.023-.784.07-.243.047-.43.089-.56.126v8.148c0 1.848.537 3.197 1.61 4.046 1.073.85 2.571 1.274 4.494 1.274zm11.144-.224c.28 0 .537-.023.77-.07.233-.047.415-.098.546-.154v-10.22c.43-.243.952-.443 1.568-.602a8.192 8.192 0 0 1 2.044-.238c.317 0 .616.019.896.056.28.037.513.075.7.112.093-.15.177-.322.252-.518.075-.196.112-.406.112-.63 0-.933-.821-1.4-2.464-1.4-1.008 0-1.932.112-2.772.336-.84.224-1.53.504-2.072.84-.41.261-.71.537-.896.826-.187.29-.28.667-.28 1.134v9.184c0 .485.13.83.392 1.036.261.205.663.308 1.204.308zm15.512.224a9.5 9.5 0 0 0 1.834-.168 6.466 6.466 0 0 0 1.484-.462c.42-.196.751-.43.994-.7.243-.27.364-.565.364-.882 0-.541-.261-.961-.784-1.26-.392.28-.915.541-1.568.784a6.148 6.148 0 0 1-2.156.364c-1.176 0-2.142-.257-2.898-.77-.756-.513-1.265-1.302-1.526-2.366l8.176-1.176c.43-.075.756-.22.98-.434.224-.215.336-.555.336-1.022 0-.84-.145-1.615-.434-2.324-.29-.71-.7-1.32-1.232-1.834a5.71 5.71 0 0 0-1.904-1.204c-.737-.29-1.554-.434-2.45-.434-.896 0-1.736.15-2.52.448a5.845 5.845 0 0 0-2.044 1.302c-.579.57-1.036 1.279-1.372 2.128-.336.85-.504 1.834-.504 2.954 0 1.157.173 2.175.518 3.052.345.877.835 1.615 1.47 2.212a6.14 6.14 0 0 0 2.282 1.344c.887.299 1.871.448 2.954.448zm-4.424-7.616c.037-1.288.397-2.277 1.078-2.968.681-.69 1.535-1.036 2.562-1.036 1.008 0 1.783.294 2.324.882.541.588.85 1.302.924 2.142l-6.888.98zm17.276 7.616c1.008 0 1.76-.159 2.254-.476.495-.317.742-.719.742-1.204 0-.261-.051-.485-.154-.672a2.84 2.84 0 0 0-.35-.504c-.261.13-.57.243-.924.336-.355.093-.69.14-1.008.14-.71 0-1.26-.14-1.652-.42-.392-.28-.588-.756-.588-1.428V17.44h3.612c.69 0 1.036-.401 1.036-1.204 0-.224-.033-.439-.098-.644a1.934 1.934 0 0 0-.21-.476h-4.34v-2.772c0-.485-.126-.83-.378-1.036-.252-.205-.649-.308-1.19-.308-.28 0-.541.028-.784.084-.243.056-.43.103-.56.14V24.3c0 1.437.415 2.469 1.246 3.094.83.625 1.946.938 3.346.938zm12.18 0a9.5 9.5 0 0 0 1.834-.168 6.466 6.466 0 0 0 1.484-.462c.42-.196.751-.43.994-.7.243-.27.364-.565.364-.882 0-.541-.261-.961-.784-1.26-.392.28-.915.541-1.568.784a6.148 6.148 0 0 1-2.156.364c-1.176 0-2.142-.257-2.898-.77-.756-.513-1.265-1.302-1.526-2.366l8.176-1.176c.43-.075.756-.22.98-.434.224-.215.336-.555.336-1.022 0-.84-.145-1.615-.434-2.324-.29-.71-.7-1.32-1.232-1.834a5.71 5.71 0 0 0-1.904-1.204c-.737-.29-1.554-.434-2.45-.434-.896 0-1.736.15-2.52.448a5.845 5.845 0 0 0-2.044 1.302c-.579.57-1.036 1.279-1.372 2.128-.336.85-.504 1.834-.504 2.954 0 1.157.173 2.175.518 3.052.345.877.835 1.615 1.47 2.212a6.14 6.14 0 0 0 2.282 1.344c.887.299 1.871.448 2.954.448zm-4.424-7.616c.037-1.288.397-2.277 1.078-2.968.681-.69 1.535-1.036 2.562-1.036 1.008 0 1.783.294 2.324.882.541.588.85 1.302.924 2.142l-6.888.98zm19.18 7.616a9.5 9.5 0 0 0 1.834-.168 6.466 6.466 0 0 0 1.484-.462c.42-.196.751-.43.994-.7.243-.27.364-.565.364-.882 0-.541-.261-.961-.784-1.26-.392.28-.915.541-1.568.784a6.148 6.148 0 0 1-2.156.364c-1.176 0-2.142-.257-2.898-.77-.756-.513-1.265-1.302-1.526-2.366l8.176-1.176c.43-.075.756-.22.98-.434.224-.215.336-.555.336-1.022 0-.84-.145-1.615-.434-2.324-.29-.71-.7-1.32-1.232-1.834a5.71 5.71 0 0 0-1.904-1.204c-.737-.29-1.554-.434-2.45-.434-.896 0-1.736.15-2.52.448a5.845 5.845 0 0 0-2.044 1.302c-.579.57-1.036 1.279-1.372 2.128-.336.85-.504 1.834-.504 2.954 0 1.157.173 2.175.518 3.052.345.877.835 1.615 1.47 2.212a6.14 6.14 0 0 0 2.282 1.344c.887.299 1.871.448 2.954.448zm-4.424-7.616c.037-1.288.397-2.277 1.078-2.968.681-.69 1.535-1.036 2.562-1.036 1.008 0 1.783.294 2.324.882.541.588.85 1.302.924 2.142l-6.888.98z" fill="#000" fill-rule="nonzero"/>
    </g>
</svg>
